<svg xmlns="http://www.w3.org/2000/svg" viewBox="0 0 1518 295" fill="none">
<path d="M236.5 192.642C241.101 192.642 242.941 198.134 242.941 210.034C242.463 218.156 239.931 226.027 235.58 232.917C229.82 242.17 222.684 250.503 214.416 257.631C205.859 265.087 196.248 271.255 185.892 275.938C176.45 280.613 166.072 283.116 155.527 283.26C141.724 283.26 133.443 271.361 128.842 247.562C122.397 258.551 113.205 267.696 102.158 274.107C89.043 281.6 74.0064 285.101 58.9109 284.176C51.0816 284.377 43.2824 283.136 35.9071 280.514C28.4535 277.462 21.6005 273.123 15.6637 267.7C10.5319 262.418 6.47065 256.203 3.70177 249.393C1.07033 242.691 -0.181289 235.532 0.0211665 228.34C0.0211665 185.32 14.7436 151.452 43.2683 126.738C52.89 117.486 64.5468 110.591 77.3139 106.601C88.0312 103.29 99.2206 101.744 110.439 102.024C120.327 101.853 130.11 104.051 138.964 108.432C142.645 101.109 146.325 97.4477 150.926 97.4477C155.781 97.3595 160.562 98.628 164.728 101.109C169.251 102.993 173.326 105.799 176.69 109.347C183.43 114.817 187.728 122.711 188.652 131.315C184.051 141.384 178.531 151.452 173.01 161.521C170.258 177.845 169.332 194.422 170.249 210.949C170.249 232.002 173.01 242.986 178.531 242.986C184.051 242.986 201.534 230.171 226.378 203.626C230.979 195.388 234.66 192.642 236.5 192.642ZM56.1504 215.526C56.1504 234.748 63.5116 244.816 78.234 244.816C86.323 244.57 94.1924 242.14 101 237.786C107.807 233.433 113.297 227.32 116.88 220.102C120.326 213.568 123.399 206.845 126.082 199.965C125.749 175.358 128.218 150.793 133.443 126.738C112.812 130.888 93.9029 141.09 79.1542 156.029C71.6486 164.012 65.718 173.327 61.6713 183.489C57.9804 193.769 56.1123 204.609 56.1504 215.526V215.526Z" fill="white"/>
<path d="M404.772 166.793C404.772 158.541 400.175 153.956 390.062 153.956C383.932 153.956 376.577 160.374 367.996 173.211C359.933 185.911 354.03 199.853 350.528 214.473V215.39C350.785 224.36 352.018 233.276 354.205 241.981C356.313 248.2 357.55 254.679 357.883 261.236C357.883 269.488 346.85 277.741 325.704 286.91C322.767 288.04 319.657 288.66 316.51 288.744C313.538 288.676 310.654 287.718 308.236 285.993C305.881 284.168 304.252 281.568 303.639 278.658C301.005 270.045 299.764 261.069 299.961 252.067C299.961 241.064 299.961 230.061 300.881 219.974C301.8 209.888 301.8 200.719 302.719 192.467C303.639 184.214 303.639 176.879 304.558 169.544C305.248 164.377 305.556 159.167 305.478 153.956C305.478 145.704 301.8 141.119 293.526 141.119C285.251 141.119 276.057 150.288 265.944 168.627C257.375 181.887 252.024 196.956 250.314 212.639C250.175 222.844 251.412 233.021 253.992 242.898C256.099 249.117 257.337 255.596 257.669 262.153C257.669 270.405 246.637 278.658 225.491 287.827C222.553 288.957 219.444 289.577 216.297 289.661C213.324 289.593 210.441 288.635 208.022 286.91C205.667 285.085 204.038 282.485 203.425 279.574C200.845 269.698 199.608 259.521 199.748 249.316C198.986 223.252 200.525 197.172 204.345 171.377C208.211 147.535 216.975 124.747 230.088 104.442C231.724 101.596 233.912 99.1023 236.523 97.1067C239.341 95.341 242.456 94.0984 245.717 93.439C253.992 93.439 262.266 99.8574 268.702 113.611C270.778 116.699 272.331 120.107 273.299 123.697C277.779 116.605 284.144 110.892 291.687 107.193C299.057 103.257 307.235 101.061 315.591 100.774C326.432 100.648 336.927 104.573 345.011 111.777C348.846 115.096 351.973 119.15 354.205 123.697C356.463 128.241 357.417 133.318 356.963 138.368V142.953C363.178 133.818 371.756 126.53 381.787 121.864C391.87 117.169 402.839 114.669 413.966 114.528C419.546 114.23 425.137 114.85 430.515 116.362C435.881 118.197 440.866 120.994 445.225 124.614C448.789 127.967 451.607 132.028 453.499 136.534C455.381 141.195 456.318 146.181 456.258 151.205C456.258 160.374 455.338 170.461 454.419 179.63C453.5 188.799 450.741 196.134 448.903 203.47C447.064 210.805 445.225 217.224 443.386 222.725C442.323 227.239 441.707 231.845 441.547 236.479C441.547 239.23 442.467 241.064 444.306 241.064C449.564 240.133 454.392 237.565 458.096 233.728C463.613 229.144 469.129 223.642 474.645 218.141L490.275 202.553C494.872 197.968 498.55 195.218 500.388 195.218C504.066 195.218 505.905 199.802 505.905 208.054C505.905 225.476 496.711 242.898 479.242 260.319C464.251 275.857 443.841 285.05 422.24 285.993C403.852 285.993 394.658 269.488 394.658 236.479C394.83 224.726 396.373 213.033 399.255 201.636C402.296 190.243 404.145 178.566 404.772 166.793Z" fill="white"/>
<path d="M614.307 250.175C606.009 261.372 594.919 270.214 582.136 275.824C569.558 281.984 555.707 285.121 541.693 284.984C513.199 284.984 492.977 277.656 478.27 262.999C471.388 255.931 466.066 247.506 462.644 238.266C458.834 228.987 457.26 218.948 458.049 208.953C457.086 180.303 467.299 152.395 486.543 131.089C495.769 120.293 507.421 111.819 520.552 106.356C533.655 100.904 547.715 98.1017 561.915 98.1114C573.477 98.0742 584.966 99.931 595.924 103.608C610.631 110.02 617.984 115.516 617.984 121.012C617.984 126.509 607.873 127.425 586.732 127.425C576.965 127.388 567.286 129.255 558.238 132.921C549.077 136.46 540.888 142.11 534.34 149.41C527.187 156.441 521.556 164.859 517.795 174.143C514.566 183.876 513.622 194.219 515.037 204.373C515.016 214.718 518.588 224.752 525.148 232.77C528.808 236.618 533.177 239.728 538.016 241.93C543.008 243.806 548.307 244.738 553.642 244.678C564.239 245.087 574.742 242.549 583.975 237.35C575.167 231.81 568.147 223.86 563.753 214.449C558.823 205.167 556.594 194.697 557.319 184.22C557.064 171.964 561.691 160.106 570.187 151.242C574.531 146.488 579.864 142.736 585.813 140.249C591.925 137.714 598.497 136.466 605.116 136.585C610.756 136.039 616.446 136.834 621.719 138.904C626.992 140.974 631.697 144.261 635.448 148.494C641.638 157.35 644.855 167.932 644.64 178.723C644.325 192.343 641.196 205.752 635.448 218.113H637.287C642.588 218.091 647.834 217.028 652.723 214.985C657.612 212.941 662.049 209.958 665.781 206.205L674.053 197.96L676.811 195.212C677.73 194.296 678.649 194.296 680.488 194.296C684.164 194.296 686.003 198.876 686.003 207.121C686.444 213.655 685.504 220.208 683.245 226.358C680.89 232.363 677.104 237.708 672.215 241.93C663.77 249.129 652.994 253.034 641.882 252.923C632.624 252.874 623.392 251.954 614.307 250.175V250.175ZM611.55 206.205C615.514 197.888 617.705 188.842 617.984 179.639C617.984 171.395 615.227 166.815 609.712 166.815C608.455 166.99 607.273 167.511 606.298 168.321C605.324 169.13 604.596 170.195 604.196 171.395C602.71 174.208 602.072 177.389 602.358 180.555C602.382 185.27 603.318 189.935 605.116 194.296C605.331 196.61 606.012 198.856 607.118 200.902C608.223 202.948 609.73 204.752 611.55 206.205V206.205Z" fill="white"/>
<path d="M1479 286.324C1486.66 286.324 1494.14 284.053 1500.51 279.8C1506.88 275.546 1511.84 269.5 1514.77 262.427C1517.7 255.354 1518.46 247.57 1516.97 240.061C1515.48 232.552 1511.79 225.655 1506.38 220.241C1500.96 214.827 1494.07 211.14 1486.56 209.647C1479.05 208.153 1471.26 208.92 1464.19 211.85C1457.12 214.779 1451.07 219.741 1446.82 226.107C1442.56 232.473 1440.29 239.957 1440.29 247.613C1440.66 257.763 1444.86 267.398 1452.04 274.58C1459.22 281.762 1468.85 285.958 1479 286.324Z" fill="#C1E9FB"/>
<path d="M1085.46 199.613C1090.06 199.613 1091.9 205.115 1091.9 217.037C1091.11 225.249 1088.26 233.131 1083.62 239.963C1077.85 249.233 1070.72 257.581 1062.45 264.722C1053.89 272.192 1044.27 278.372 1033.91 283.063C1024.8 287.74 1014.72 290.251 1004.46 290.399C996.751 290.438 989.156 288.546 982.371 284.897C976.706 281.393 972.219 276.284 969.485 270.225C964.883 261.971 962.122 245.465 958.44 220.705C956.651 203.749 953.885 186.909 950.157 170.268C943.652 169.25 937.58 166.384 932.669 162.015C930.124 160.594 928.167 158.319 927.146 155.596C926.098 152.959 925.476 150.173 925.305 147.343C924.921 144.751 925.583 142.113 927.146 140.006L932.669 134.504C938.44 131.888 944.739 130.632 951.077 130.836C957.484 130.941 963.782 132.51 969.485 135.421C976.511 129.826 982.44 122.986 986.973 115.247C991.829 105.269 994.047 94.2213 993.416 83.1505C993.472 77.2303 992.539 71.342 990.655 65.727C988.374 60.1701 984.921 55.1663 980.53 51.0545C969.318 42.2506 955.182 37.9925 940.952 39.1331C927.305 38.7922 913.677 40.3352 900.454 43.7183C892.273 46.2171 884.277 49.2813 876.523 52.8886C870.081 56.5567 863.638 59.3078 858.115 62.0588C853.558 64.5394 848.553 66.0977 843.388 66.644C838.786 66.644 836.946 64.8099 836.946 62.0588C838.067 56.6095 840.606 51.5496 844.309 47.3864C850.208 39.8078 857.368 33.294 865.478 28.1288C888.092 13.3027 914.287 4.80019 941.326 3.50966C968.365 2.21914 995.256 8.18802 1019.19 20.7925C1029.88 26.5604 1038.79 35.1201 1044.96 45.5523C1051.34 56.0055 1054.24 68.2037 1053.24 80.3994C1054.11 99.9395 1047.9 119.14 1035.76 134.504C1024.53 148.71 1009.55 159.509 992.496 165.683C996.522 174.507 999.607 183.728 1001.7 193.194C1004.46 203.281 1006.3 211.535 1009.06 219.788C1010.86 226.867 1013.65 233.658 1017.35 239.963C1018.6 242.013 1020.15 243.867 1021.95 245.465C1023.79 247.299 1025.63 247.299 1028.39 248.216C1034.14 247.11 1039.52 244.588 1044.04 240.88C1050.52 236.11 1056.4 230.567 1061.53 224.373C1067.05 218.871 1072.57 213.369 1077.17 207.867C1079.93 201.447 1083.62 199.613 1085.46 199.613ZM919.783 62.0588C923.465 62.0588 924.385 66.644 924.385 74.8973C924.229 83.178 923.615 91.4439 922.544 99.6571C920.799 113.673 917.717 127.491 913.34 140.923C907.36 160.761 902.748 180.983 899.534 201.447V257.386C900.191 263.144 898.894 268.954 895.852 273.893C892.847 278.738 888.75 282.82 883.887 285.814L870.08 292.233C865.428 294.197 860.404 295.135 855.354 294.984C844.309 294.984 839.707 283.063 839.707 258.303C840.892 226.736 846.786 195.521 857.195 165.683C865.319 135.798 877.39 107.12 893.091 80.3994C896.014 75.7896 899.757 71.7497 904.136 68.4781C906.174 66.411 908.611 64.7765 911.3 63.6733C913.989 62.5701 916.875 62.0209 919.783 62.0588V62.0588Z" fill="#C1E9FB"/>
<path d="M1414.5 199.718C1419.1 199.718 1420.94 205.215 1420.94 217.125C1420.15 225.329 1417.3 233.203 1412.66 240.028C1406.9 249.29 1399.76 257.63 1391.5 264.764C1382.94 272.227 1373.33 278.4 1362.98 283.087C1352.56 287.78 1341.28 290.276 1329.85 290.416C1324.81 290.477 1319.81 289.542 1315.13 287.668C1310.48 286.034 1306.35 283.186 1303.17 279.422C1296.67 272.452 1293.05 263.287 1293.05 253.77C1293.16 243.228 1294.71 232.749 1297.65 222.622C1301.33 210.712 1304.09 198.802 1307.77 185.976C1315.68 162.867 1320.62 138.858 1322.49 114.517C1322.33 109.888 1321.72 105.285 1320.65 100.775C1319.93 99.1382 1318.62 97.8306 1316.97 97.1107C1315.24 96.3646 1313.34 96.0502 1311.45 96.1946C1301.7 97.4129 1292.8 102.337 1286.61 109.937C1277.3 120.777 1268.99 132.428 1261.77 144.75C1245.29 173.954 1235.84 206.57 1234.17 240.028L1236.01 251.022C1236.77 254.635 1237.08 258.327 1236.93 262.016C1237.01 266.56 1235.73 271.025 1233.25 274.842C1231.3 278.789 1228.47 282.237 1224.97 284.919C1217.62 291.421 1208.12 295.007 1198.29 294.997C1195.57 295.065 1192.93 294.08 1190.93 292.248C1188.89 290.515 1187.32 288.313 1186.33 285.835C1183.4 279.188 1181.83 272.023 1181.73 264.764C1182.6 253.329 1184.44 241.989 1187.25 230.867C1190.93 216.209 1195.53 200.634 1200.13 185.06C1212.09 142.001 1218.53 109.937 1218.53 88.8654C1218.67 80.1751 1217.43 71.5176 1214.85 63.2136C1213.5 60.1744 1211.26 57.6173 1208.41 55.8845C1207.1 54.9416 1205.6 54.2902 1204.01 53.9741C1202.42 53.658 1200.78 53.6846 1199.21 54.0522C1185.41 54.0522 1171.61 64.1297 1158.73 83.3686C1145.85 102.608 1132.97 132.84 1122.85 174.066C1120.09 185.06 1118.25 194.221 1116.41 201.551V208.88C1120.27 223.89 1122.73 239.224 1123.77 254.687C1124.44 260.575 1123.31 266.528 1120.51 271.762C1117.72 276.995 1113.4 281.263 1108.12 284.003L1094.32 290.416C1089.65 292.291 1084.64 293.225 1079.6 293.164C1066.72 293.164 1060.28 281.255 1060.28 256.519C1060.28 231.783 1066.72 185.06 1079.6 114.517C1084.2 88.8654 1086.96 75.1234 1086.96 71.4588C1086.96 51.3038 1081.44 40.3101 1071.32 40.3101C1067.77 40.358 1064.29 41.3037 1061.2 43.0585C1058.29 45.4092 1055.22 47.5522 1052 49.4715C1048.72 51.6295 1045.64 54.0828 1042.8 56.8006C1039.77 58.6751 1036.25 59.6301 1032.68 59.549C1029 59.549 1027.16 55.8845 1027.16 49.4715C1027.14 42.3797 1029.04 35.4141 1032.68 29.3164C1036.04 23.4003 1040.77 18.3732 1046.48 14.6582C1059.56 5.21043 1075.42 0.374562 1091.56 0.916139C1114.56 0.916139 1128.37 11.9098 1132.05 32.981C1133.16 39.6452 1133.77 46.3818 1133.89 53.136C1152.29 18.3228 1176.21 0 1205.65 0C1236.93 0 1255.33 14.6582 1259.01 44.8908C1260.54 53.9687 1261.16 63.1755 1260.85 72.3749V75.1234C1277.41 52.2199 1296.73 41.2262 1319.73 41.2262C1351.94 41.2262 1367.58 60.4652 1367.58 98.943C1367.6 118.778 1364.81 138.517 1359.3 157.576C1353.78 180.479 1350.1 196.054 1348.26 206.131C1346.06 213.581 1344.83 221.276 1344.58 229.035C1344.58 239.112 1348.26 243.693 1354.7 243.693C1361.14 243.693 1377.7 230.867 1403.46 204.299C1406.88 202.217 1410.6 200.672 1414.5 199.718V199.718Z" fill="#C1E9FB"/>
<path d="M870.872 148.693C877.314 148.693 880.995 155.11 880.995 167.029C881.001 180.599 878.181 194.023 872.712 206.452C866.447 221.239 857.736 234.875 846.943 246.792C834.849 260.526 820.148 271.743 803.687 279.798C784.717 289.736 763.438 294.482 742.024 293.55C718.921 293.595 696.621 285.102 679.442 269.713C661.955 254.127 652.752 231.206 652.752 200.951C652.455 173.227 656.81 145.649 665.637 119.355C672.949 96.5278 684.157 75.1276 698.769 56.0942C711.712 40.4089 727.28 27.0714 744.786 16.671C759.947 7.15773 777.485 2.07524 795.404 2.00195C823.014 2.00195 836.819 13.9206 836.819 38.6746C837.684 50.4516 835.128 62.2277 829.457 72.5969C823.935 80.8482 819.333 85.4323 813.811 85.4323C810.361 85.3515 806.945 84.7328 803.687 83.5987C800.403 82.2293 797.545 80.0143 795.404 77.181C793.263 74.3476 790.405 72.1326 787.121 70.7632C784.086 68.8873 780.568 67.9317 776.997 68.0128C770.555 68.0128 753.069 67.096 738.343 90.9332C732.599 99.0231 728.244 108.008 725.458 117.521C717.029 139.796 712.665 163.394 712.574 187.199C713.667 195.657 716.424 203.816 720.688 211.211C724.952 218.605 730.639 225.088 737.423 230.289C745.529 235.773 755.262 238.358 765.033 237.624C773.756 236.809 782.231 234.283 789.971 230.192C797.71 226.101 804.561 220.526 810.129 213.787L834.979 186.282C843.262 177.114 850.624 167.946 857.067 159.695C862.589 153.277 867.19 148.693 870.872 148.693Z" fill="#C1E9FB"/>
</svg>