<svg xmlns="http://www.w3.org/2000/svg" viewBox="0 0 55 55" enable-background="new 0 0 55 55"><defs><radialGradient id="rg-1" cx="27.5" cy="27.5" r="19.4" gradientUnits="userSpaceOnUse"><stop offset="0" stop-color="#0061a3"/><stop offset=".579" stop-color="#005fa2"/><stop offset=".841" stop-color="#00589f"/><stop offset="1" stop-color="#004e9a"/></radialGradient><linearGradient id="lg-1" gradientUnits="userSpaceOnUse" x1="44.4" y1="45.4" x2="10.6" y2="11.6" gradientTransform="matrix(1 0 0 -1 0 56)"><stop offset="0" stop-color="#fff"/><stop offset=".156" stop-color="#f9f9f9"/><stop offset=".361" stop-color="#e9e9e9"/><stop offset=".592" stop-color="#cecece"/><stop offset=".842" stop-color="#a8a8a8"/><stop offset="1" stop-color="#8d8d8d"/></linearGradient><filter id="dropshadow"><feGaussianBlur in="SourceAlpha" stdDeviation="1"/><feOffset dy="1" result="offsetblur"/><feComponentTransfer><feFuncA type="linear" slope=".5"/></feComponentTransfer><feMerge><feMergeNode/><feMergeNode in="SourceGraphic"/></feMerge></filter><style>.seal0{fill:url(#lg-1)}.seal2{opacity:.1}.seal3{fill:#707070}.seal4{fill:#fff}</style></defs><circle class="seal0" cx="27.5" cy="27.5" r="23.9" filter="url(#dropshadow)"/><circle class="seal0" cx="27.5" cy="27.5" r="23.9"/><circle cx="27.5" cy="27.5" r="19.4" fill="url(#rg-1)"/><g class="seal2"><path class="seal3" d="M3.6 27.5c0 13.2 10.7 23.9 23.9 23.9 7.1 0 13.4-3.1 17.8-7.9-4.2 3.8-9.8 6.1-15.9 6.1-13.2 0-23.9-10.7-23.9-23.9 0-6.1 2.3-11.7 6.1-15.9-4.9 4.3-8 10.6-8 17.7z"/></g><g class="seal2"><path class="seal3" d="M46.9 27.5c0-10.7-8.7-19.4-19.4-19.4-5.7 0-10.9 2.5-14.4 6.5 3.4-3.1 8-5 13-5 10.7 0 19.4 8.7 19.4 19.4 0 5-1.9 9.5-5 13 3.9-3.6 6.4-8.8 6.4-14.5z"/></g><path class="seal4" d="M36.6 26.5h-8.9L32 19h9zM23.2 19h-8.8l13.1 22.7 4.4-7.6z"/></svg>