<svg xmlns="http://www.w3.org/2000/svg" style="width: 100%; height: 100%;" viewBox="0 0 1338.78 433.85"><defs><style>.cls-1{fill:#fdfdfd;}.cls-2{fill:#6ef96e;}</style></defs><g id="Capa_2" data-name="Capa 2"><g id="Capa_1-2" data-name="Capa 1"><path class="cls-1" d="M981.09,289c.47,1.42-.39,2.41-1.12,3.44a364.28,364.28,0,0,1-23.55,30.26c-4.63,5.29-9.36,10.52-14.41,15.4a140.38,140.38,0,0,1-12.55,10.37,23.29,23.29,0,0,1-16.24,4.61c-10.22-.69-20.43-1.37-30.23-4.67-2.72-.91-5.48-1.75-8.12-2.87q-32.16-13.63-41.12-47.43a114,114,0,0,1-3.67-29.42q0-36,0-72c0-6.39,0-12.79,0-19.18a12.19,12.19,0,0,0-.35-3.79,2.83,2.83,0,0,0-2-1.69,65.11,65.11,0,0,0-9.57-.19c-3.36.24-6.93-1.19-10.08,1.06-.4,3.25.69,6.3,1.41,9.36,1.18,5,1.4,10.13,1.71,15.23.24,4.15.34,8.31.35,12.46q0,64.77,0,129.52c0,2.55-.14,5.11-.37,7.65-.05.46-.78,1.08-1.31,1.24a10.38,10.38,0,0,1-2.85.27q-30.7,0-61.41,0c-1,0-1.91-.1-2.87-.17a2.79,2.79,0,0,1-2.19-2.7c0-2.88-.08-5.76-.08-8.64q0-60.43,0-120.88c0-5.75-.42-11.5-.72-17.25a41.22,41.22,0,0,0-2.83-12.09c-4.65-12.75-14-19.38-27.34-20.71a38.06,38.06,0,0,0-21.3,4.41,57.07,57.07,0,0,0-12.47,8.86,117.57,117.57,0,0,0-17.87,21.24,9.88,9.88,0,0,0-1.76,5.38c-.07,2.56,0,5.11,0,7.67q0,62.37,0,124.73c0,2.87-.14,5.74-.37,8.6,0,.47-.76,1-1.29,1.26a4.52,4.52,0,0,1-1.88.26c-21.11,0-42.22,0-63.33.06-2.78,0-4-1.27-4.67-3.71a1.53,1.53,0,0,0-2.19-1.11c-1.48.6-3,1.08-4.52,1.58-4,1.28-7.86,2.7-11.86,3.78-12.78,3.45-25.73,4.86-38.93,3a41.77,41.77,0,0,1-11.88-3.55,28.18,28.18,0,0,1-13.59-13c-.87-1.7-1.52-3.51-2.29-5.26a2.27,2.27,0,0,0-3.26-.76c-2.18,1.32-4.34,2.7-6.53,4a136,136,0,0,1-35.94,15.53c-12.79,3.32-25.73,4.85-38.94,3.19-19.6-2.47-34.72-12.2-45.64-28.48a45,45,0,0,1-7.61-25.34,72.62,72.62,0,0,1,3.7-24.51c4.6-13.19,12.68-23.53,24.72-30.69a196.45,196.45,0,0,1,25-12.16c19.48-8.09,39.49-14.7,59.58-21.06,5.79-1.82,11.6-3.55,17.38-5.41,3.34-1.08,3.77-1.94,3.76-5.64a40.26,40.26,0,0,0-2-12.27c-3.32-10.4-11-16.15-21.22-18.81-9.11-2.37-18.36-2.38-27.63-1.27-20.16,2.42-38.17,10.15-54.33,22.29-4.08,3.08-7.87,6.54-11.88,9.7-1.38,1.09-2.35,3.6-4.56,2.5-1.56-.77-.81-2.85-.81-4.34,0-15.67,0-31.34-.07-47,0-2.94,1.14-4.61,3.63-6.07a177.53,177.53,0,0,1,49.54-20.06,193.68,193.68,0,0,1,62.86-4.44c11.18,1.08,22.19,2.7,32.87,6.24a76.35,76.35,0,0,1,19.72,9.65c13.35,9.29,20.93,22.13,23.5,38a113.67,113.67,0,0,1,1.35,18.16q-.11,46,0,92.1c0,2.24-.05,4.48,0,6.72a49.89,49.89,0,0,0,.45,5.73c1.21,7.85,8.18,11.76,15.76,8.86a3.2,3.2,0,0,0,2.19-2.88c.13-3.19.15-6.39.15-9.59q0-78.18,0-156.38c0-3.2.06-6.39.15-9.59a3,3,0,0,1,3.15-2.86c.64,0,1.28-.05,1.92-.05q30.71,0,61.41,0a8.32,8.32,0,0,1,2.8.47,2,2,0,0,1,1.18,1.29c.26,2.2.41,4.42.46,6.64.16,6.38.25,12.76.39,19.14,0,.75.51,1.12,1.3,1.1.28,0,.64,0,.82-.12.75-.6,1.45-1.26,2.14-1.93,2.05-2,4-4.12,6.13-6.06,10.23-9.44,21.69-16.86,35-21.1a86.85,86.85,0,0,1,37.85-3.8,95.53,95.53,0,0,1,16.9,3.33c15.64,5,28.7,13.83,38.76,26.92,1.17,1.51,2.33,3,3.51,4.54a1.71,1.71,0,0,0,2.49-.07c1.54-1.63,3.08-3.25,4.57-4.92q21.75-24.3,43.49-48.63l36.42-40.79c1.49-1.67,3-3.29,4.52-5a5.11,5.11,0,0,1,4.17-1.93c1.59.06,3.19.06,4.77.27A1.79,1.79,0,0,1,900.64,54a39.92,39.92,0,0,1,.48,5.67c0,17.91,0,35.82,0,53.73,0,2.55.13,5.1.23,7.65a2.23,2.23,0,0,0,1.71,2,15.08,15.08,0,0,0,3.8.35c23,0,46.06,0,69.09.06a8.2,8.2,0,0,0,6.72-2.91q14.32-16.15,28.76-32.21L1037,59.75c1.71-1.9,3.46-3.77,5.2-5.64a4.4,4.4,0,0,1,3.38-1.49c1.6,0,3.19.06,4.78.12a2.27,2.27,0,0,1,1.93,1.76c.09,2.55.19,5.11.19,7.66q0,25.43,0,50.85c0,2.55.07,5.11.15,7.66a2.7,2.7,0,0,0,2.31,2.58c1.92.09,3.83.19,5.75.19,9.92,0,19.83,0,29.75,0,1.91,0,3.82.15,5.73.28,1.1.07,1.53,1,2,1.81a2.07,2.07,0,0,1,.12.94q0,21.11,0,42.21a2.81,2.81,0,0,1-2.94,3c-1.6.07-3.2.09-4.8.1-6.39,0-12.79,0-19.19,0q-8.14,0-16.3.16a2.64,2.64,0,0,0-2.4,2.44c-.07,1.28-.16,2.55-.16,3.83q0,42.69,0,85.39a46.3,46.3,0,0,0,2,15.13c4,12,12.36,19.44,24.81,21.25,13.56,2,26.74-.53,39.43-5.61a2.23,2.23,0,0,0,.85-2.48c-1.11-2.3-2.28-4.57-3.37-6.87A113.92,113.92,0,0,1,1105,235c.4-50.61,30.25-88.08,66.44-105.37a113.91,113.91,0,0,1,57.7-11.28c52.07,3.6,92.21,38.8,105.09,84.61a116.48,116.48,0,0,1-73.51,142.2,113.85,113.85,0,0,1-53.82,5.66c-31.65-4.36-57.16-19.21-77.15-43.91-1.2-1.49-2.39-3-3.72-4.36a1.77,1.77,0,0,0-1.72.09c-1.33,1.36-2.52,2.87-3.74,4.33-6.35,7.61-12.56,15.35-19.1,22.79-3.79,4.31-8.08,8.19-12.22,12.18-1.61,1.55-3.43,2.88-5.17,4.28a29.11,29.11,0,0,1-22.25,6.8c-9.23-1-18.47-1.58-27.35-4.53-2.72-.9-5.5-1.7-8.14-2.81-21-8.93-34.81-24.34-41-46.4-.69-2.46-1.31-4.94-1.91-7.43-.35-1.42-1.45-2-2.59-2.56a4,4,0,0,0,1.61-3.33c-1.47-11.15-.9-22.35-.94-33.53-.07-23,0-46,0-69.06,0-2.87,0-5.75-.14-8.62,0-1.69-1.25-2.71-3.15-2.79l-1.92-.06-70,0a23,23,0,0,0-2.86.23,2.47,2.47,0,0,0-2,1.79,5.4,5.4,0,0,0-.24,1.89c0,30.37,0,60.74,0,91.12a45,45,0,0,0,1.21,8.51c3.35,16.8,17.1,24.67,29.74,25.16a86.26,86.26,0,0,0,32.92-5.16C970.49,293.41,975.76,291.13,981.09,289Zm184.35-54.92c-.65,28.69,23.25,56.6,56.87,56.45a56.19,56.19,0,0,0,56.17-56.3c.13-35-28.83-57-56.5-57C1190.85,177.28,1164.76,203.28,1165.44,234.07Zm-670.06,34h0q0-9.59,0-19.18c0-1.92,0-3.84-.08-5.76a2.43,2.43,0,0,0-3.2-2.38c-14.23,4.85-28.19,10.31-41.11,18.1a53.33,53.33,0,0,0-7,5.1,29.49,29.49,0,0,0-10.68,20.75c-1.15,13.75,9,27.2,25,26.23a50.56,50.56,0,0,0,18.49-4.61,79.45,79.45,0,0,0,15.37-9.69,7.57,7.57,0,0,0,3.24-6.5C495.32,282.81,495.38,275.46,495.38,268.1Z"/><path class="cls-1" d="M259,355.5c-27.18,0-54.36.17-81.54,0-82.75-.6-145.39-54.34-167.77-119.29A181.33,181.33,0,0,1,.25,167.32c3-59.84,37.89-116.17,92.35-145.74A175.65,175.65,0,0,1,148.49,2.41,177.69,177.69,0,0,1,349.54,132.35a169,169,0,0,1,5.84,49.34c-1.34,40.62-14.53,76.91-40.22,108.53-2,2.48-4.07,4.93-6.11,7.38a1.14,1.14,0,0,0,0,1.72c.2.2.42.55.64.56,1.91.11,3.83.2,5.74.2,11.2,0,22.39,0,33.58,0a26.06,26.06,0,0,1,4.74.45c.51.09,1,.75,1.3,1.27a4.35,4.35,0,0,1,.35,1.84q0,24,0,48a3.28,3.28,0,0,1-.35,1.85c-.52.7-1.3,1.62-2,1.69-2.85.28-5.73.33-8.6.33q-42.69,0-85.38,0Zm-81.28-76.21c54.94.45,102.91-44.53,103.21-102.93.28-54.4-43.1-103.69-103.54-103.64a102.7,102.7,0,0,0-103.18,103C74.22,237.29,124.77,280,177.76,279.29Z"/><path class="cls-2" d="M270.44,433.85H197.58c-2.55,0-5.11,0-7.66-.05-3-.06-4-1-4-4.05q0-22.53,0-45.05c0-3,1-3.23,3.49-3.4,2.23-.15,4.48-.07,6.71-.07h148.6c2.55,0,5.11.07,7.65.27.45,0,1,.77,1.21,1.3a4.72,4.72,0,0,1,.27,1.88q0,22.05,0,44.09a12.38,12.38,0,0,1-.24,2.86c-.21.9-.58,1.9-1.74,2-2.86.12-5.73.25-8.59.25Q306.88,433.87,270.44,433.85Z"/><path class="cls-2" d="M178.32,131.76c22.29-.62,45.35,18.67,45.23,46.08a46.07,46.07,0,0,1-46.67,45.72c-26.24-.36-45.88-22.92-45.26-47.17C132.22,152.46,152.71,130.74,178.32,131.76Z"/></g></g></svg>