<svg id="Capa_1" data-name="Capa 1" xmlns="http://www.w3.org/2000/svg" xmlns:xlink="http://www.w3.org/1999/xlink" width="22.89" height="28.04" viewBox="0 0 22.89 28.04">
  <defs>
    <radialGradient id="Degradado_sin_nombre_69" cx="16" cy="13.43" r="3.05" gradientUnits="userSpaceOnUse"><stop offset="0" stop-color="#161412" stop-opacity="0"/><stop offset="0" stop-color="#19181c" stop-opacity="0.3"/><stop offset="0" stop-color="#202033" stop-opacity="0.96"/><stop offset="1" stop-color="#212034"/><stop offset="1" stop-color="#212034"/></radialGradient><radialGradient id="Degradado_sin_nombre_69-3" cx="16" cy="13.43" r="11.45" xlink:href="#Degradado_sin_nombre_69"/></defs>
  <path d="M19.05,13.43a3.05,3.05,0,1,1-3.05-3A3,3,0,0,1,19.05,13.43Z" transform="translate(-4.55 -1.98)" style="fill:url(#Degradado_sin_nombre_69)"/>
  <path d="M19.05,13.43a3.05,3.05,0,1,1-3.05-3A3,3,0,0,1,19.05,13.43Z" transform="translate(-4.55 -1.98)" style="fill:url(#Degradado_sin_nombre_69)"/>
  <path d="M19.05,13.43a3.05,3.05,0,1,1-3.05-3A3,3,0,0,1,19.05,13.43Z" transform="translate(-4.55 -1.98)" style="fill:#6ef96e"/>
  <rect x="11.91" y="24.47" width="10.99" height="3.56" style="fill:#6ef96e"/>
  <path d="M24.3,21.31A11.45,11.45,0,1,0,16,24.88H27.45V21.31Zm-15-8A6.66,6.66,0,1,1,16,20,6.66,6.66,0,0,1,9.34,13.32Z" transform="translate(-4.55 -1.98)" style="fill:url(#Degradado_sin_nombre_69-3)"/>
</svg>
